<svg width="779" height="833" viewBox="0 0 779 833" fill="none" xmlns="http://www.w3.org/2000/svg">
<path d="M152.427 503.052C152.427 518.792 152.456 552.638 133.956 556.052C103.956 551.552 95.4275 517.966 87.4275 477.466C94.9275 454.466 114.792 466.052 129.427 466.052C144.063 466.052 152.427 487.312 152.427 503.052Z" fill="#F1E7DE"/>
<path d="M437.956 476.679C417.588 508.686 375.058 549.552 338.687 549.552C302.315 549.552 232.679 542.94 246.456 512.052C262.993 474.976 302.315 448.552 338.687 448.552C375.058 448.552 416.23 453.207 437.956 476.679Z" fill="#F1E7DE"/>
<path d="M276.956 830.552C247.74 840.817 185.456 797.052 185.456 797.052C185.456 797.052 158.088 772.549 169.956 773.552C240.956 779.552 285.896 729.209 353.456 715.052C387.237 707.974 404.676 702.63 438.456 695.552C472.237 688.474 524.956 689.499 547.956 695.552C585.925 705.544 595.642 709.11 625.382 720.025L625.456 720.052C736.729 760.889 777.956 817.052 777.956 817.052L744.956 797.052C744.956 797.052 649.785 750.189 583.956 737.552C537.996 728.73 510.876 722.599 464.456 728.552C375.428 739.97 295.457 824.052 276.956 830.552Z" fill="#BE6969" stroke="black"/>
<path d="M512.956 61.052C512.956 61.052 476.982 187.146 413.456 234.052C327.456 297.552 645.456 354.052 645.456 354.052C645.456 354.052 665.075 333.771 675.456 314.552C690.195 287.266 682.956 234.052 682.956 234.052C682.956 234.052 684.698 182.338 667.456 138.552C645.806 83.5689 604.317 -9.95041 546.456 2.05212C518.402 7.87158 512.956 61.052 512.956 61.052Z" fill="#BE6969" stroke="black"/>
<path d="M134.456 314.553C134.456 314.553 172.956 279.052 152.956 249.553C130.288 216.117 116.956 213.052 81.4564 185.552C50.7087 161.734 -22.4396 83.4265 8.45635 107.053C50.9564 139.552 284.956 198.553 284.956 198.553L134.456 314.553Z" fill="#BE6969" stroke="black"/>
<g filter="url(#filter0_d_102_30)">
<path d="M331.456 483.052C331.456 495.479 338.389 519.552 336.456 519.552C334.523 519.552 320.456 497.552 320.456 483.052C320.456 470.626 332.023 459.552 333.956 459.552C335.889 459.552 331.456 470.626 331.456 483.052Z" fill="#BE6969"/>
</g>
<g filter="url(#filter1_d_102_30)">
<path d="M116.732 485.017C116.732 494.544 120.975 513 119.792 513C118.609 513 110 496.133 110 485.017C110 475.49 117.079 467 118.262 467C119.445 467 116.732 475.49 116.732 485.017Z" fill="#BE6969"/>
</g>
<path d="M132.456 552.052C94.9563 552.052 86.9563 476.052 86.9563 476.052C86.9563 476.052 84.5317 530.041 86.9563 547.052C91.3881 578.146 115.284 589.805 118.456 621.052C122.029 656.248 97.9563 680.052 94.4562 693.052C90.9562 706.052 92.9562 723.552 94.4562 730.052C99.3265 751.157 108.132 756.817 124.456 771.052C140.699 785.216 161.956 790.552 165.456 790.552C177.956 790.552 152.456 765.052 154.956 762.052C157.267 759.28 170.441 772.965 179.456 780.052C205.617 800.619 229.69 797.935 262.956 797.052C335.263 795.134 353.34 724.937 421.956 702.052C470.074 686.004 456.5 716 536.5 687.5C581.486 671.474 606.78 646.65 636.481 617.5L637.5 616.5C691 564 691 486.052 691 486.052L549.956 558.552C549.956 558.552 516.066 494.108 469.956 486.052C446.313 481.921 405.956 482.552 405.956 482.552C405.956 482.552 389.956 525.052 350.956 535.552C308.639 546.945 290.956 531.052 251.956 519.052C205.683 504.814 178.347 552.052 132.456 552.052Z" fill="#BE6969" stroke="#BE6969"/>
<path d="M196.956 683.052C169.597 712.717 154.957 757.552 154.957 757.552C154.957 757.552 91.5015 732.947 91.5015 694.947C91.5015 643.447 131.04 627.052 131.04 566.447C131.04 535.947 139.506 489.862 109.995 475.052C92.8926 466.469 67.6995 491.708 71.9565 473.052C88.9563 398.552 94.2031 333.256 154.957 273.552C196.205 233.016 227.07 220.549 280.957 199.552C343.932 175.014 436.5 186 436.5 186C436.5 186 583.898 197.239 634.456 262.552C675.317 315.339 688.964 357.315 690.456 424.052C691.387 465.645 699 495.5 672.456 529.052C647.242 560.923 615.01 566.681 574.456 564.052C516.847 560.318 407.956 483.052 407.956 483.052C407.956 483.052 365.956 453.552 296.956 466.552C225.723 479.973 248.802 626.838 196.956 683.052Z" fill="#BE6969" stroke="#BE6969"/>
<path d="M398.895 626.855C413.067 617.915 511.467 606.778 566.743 568.515C586.919 554.549 600.714 521.862 605.315 509.683C606.423 506.721 607 505 607 505C607 505 606.425 506.745 605.315 509.683C600.182 523.413 583.661 563.819 560.437 583.249C515.324 620.99 478.362 604.019 424.797 627.001C341.362 662.798 291.02 721.494 291.02 721.494C291.02 721.494 285.872 724.257 315.428 693.233C345.973 661.171 384.723 635.795 398.895 626.855Z" fill="#F1E7DE"/>
<path d="M291.02 721.494C291.02 721.494 341.362 662.798 424.797 627.001C478.362 604.019 515.324 620.99 560.437 583.249C588.672 559.627 607 505 607 505C607 505 591.787 551.179 566.743 568.515C511.467 606.778 413.067 617.915 398.895 626.855C384.723 635.795 345.973 661.171 315.428 693.233C285.872 724.257 291.02 721.494 291.02 721.494Z" stroke="#BE6969"/>
<path d="M163.456 671.552C163.456 671.552 175.357 619.522 198.628 566.052C214.852 523.24 239.456 484.552 258.456 461.552C270.022 447.552 338.956 440.552 338.956 440.552C338.956 440.552 296.029 445.967 267.956 466.052C238.872 486.862 215.693 526.844 198.628 566.052C180.628 613.552 163.456 671.552 163.456 671.552Z" fill="#F1E7DE"/>
<path d="M163.456 671.552C163.456 671.552 199.208 515.241 267.956 466.052C296.029 445.967 338.956 440.552 338.956 440.552C338.956 440.552 270.022 447.552 258.456 461.552C239.456 484.552 214.852 523.24 198.628 566.052C180.628 613.552 163.456 671.552 163.456 671.552Z" stroke="#4B4343" stroke-width="2"/>
<path d="M632.956 168.052C632.956 136.552 618.373 118.367 606.956 96.552C594.746 73.2194 563.215 24.5437 560.456 32.5521C555.136 47.9957 574.052 91.6859 565.456 127.052C555.351 168.628 479.5 181.5 479.5 181.5C479.5 181.5 540.878 180.525 565.456 191.5C585.047 200.247 632.956 238 632.956 238V210V168.052Z" fill="#F1E7DE" stroke="#4B4343" stroke-width="2"/>
<path d="M122.956 197.052C104.175 178.458 95.4304 187.928 77.4563 168.552C72.6444 163.365 39.9563 133.052 39.9563 133.052C39.9563 133.052 125.456 175.052 142.956 206.552C150.033 219.29 158.956 238.052 158.956 238.052C158.956 238.052 134.204 208.187 122.956 197.052Z" fill="#F1E7DE" stroke="#4B4343" stroke-width="2"/>
<g filter="url(#filter2_d_102_30)">
<path d="M151.132 751.552C151.132 751.552 137.273 734.436 109.108 707.144L109.059 707.097C102.972 701.198 88.5754 687.248 100.614 685.402C112.684 683.552 114.473 683.552 129.673 683.552H129.673C144.873 683.552 177.956 695.117 177.956 695.117C177.956 695.117 175.184 703.561 171.25 707.144C163.126 714.545 138.614 697.43 143.532 707.144C148.116 716.199 166.324 716.93 158.285 722.872C152.026 727.498 151.132 751.552 151.132 751.552Z" fill="#F1E7DE"/>
<path d="M151.132 751.552C151.132 751.552 137.273 734.436 109.108 707.144L109.059 707.097C102.972 701.198 88.5754 687.248 100.614 685.402C112.684 683.552 114.473 683.552 129.673 683.552H129.673C144.873 683.552 177.956 695.117 177.956 695.117C177.956 695.117 175.184 703.561 171.25 707.144C163.126 714.545 138.614 697.43 143.532 707.144C148.116 716.199 166.324 716.93 158.285 722.872C152.026 727.498 151.132 751.552 151.132 751.552Z" stroke="black"/>
</g>
<path d="M110 429.5C110 429.5 127.997 438.993 144.316 449.671C162.133 459.236 181.764 468.079 189.5 465.5C197.853 462.716 207.223 458.071 216.742 452.532C245.24 431.785 285 403 285 403C285 403 249.961 433.206 216.742 452.532C203.593 462.106 192.841 469.968 189.5 472.5C181.216 478.779 174.767 497.557 170.039 517.53C166.71 546.826 160 577.5 160 577.5C160 577.5 163.236 546.277 170.039 517.53C172.087 499.514 172.856 482.02 170 472.5C168.249 466.662 156.771 457.821 144.316 449.671C126.223 439.958 110 429.5 110 429.5Z" fill="#F1E7DE"/>
<path d="M110 429.5C110 429.5 165.954 459.013 170 472.5C177.5 497.5 160 577.5 160 577.5C160 577.5 169.294 487.816 189.5 472.5C200.082 464.479 285 403 285 403C285 403 227 453 189.5 465.5C173.908 470.697 110 429.5 110 429.5Z" stroke="#4B4343" stroke-width="2"/>
<defs>
<filter id="filter0_d_102_30" x="316.456" y="459.552" width="24.3403" height="68" filterUnits="userSpaceOnUse" color-interpolation-filters="sRGB">
<feFlood flood-opacity="0" result="BackgroundImageFix"/>
<feColorMatrix in="SourceAlpha" type="matrix" values="0 0 0 0 0 0 0 0 0 0 0 0 0 0 0 0 0 0 127 0" result="hardAlpha"/>
<feOffset dy="4"/>
<feGaussianBlur stdDeviation="2"/>
<feComposite in2="hardAlpha" operator="out"/>
<feColorMatrix type="matrix" values="0 0 0 0 0 0 0 0 0 0 0 0 0 0 0 0 0 0 0.25 0"/>
<feBlend mode="normal" in2="BackgroundImageFix" result="effect1_dropShadow_102_30"/>
<feBlend mode="normal" in="SourceGraphic" in2="effect1_dropShadow_102_30" result="shape"/>
</filter>
<filter id="filter1_d_102_30" x="106" y="467" width="18" height="54" filterUnits="userSpaceOnUse" color-interpolation-filters="sRGB">
<feFlood flood-opacity="0" result="BackgroundImageFix"/>
<feColorMatrix in="SourceAlpha" type="matrix" values="0 0 0 0 0 0 0 0 0 0 0 0 0 0 0 0 0 0 127 0" result="hardAlpha"/>
<feOffset dy="4"/>
<feGaussianBlur stdDeviation="2"/>
<feComposite in2="hardAlpha" operator="out"/>
<feColorMatrix type="matrix" values="0 0 0 0 0 0 0 0 0 0 0 0 0 0 0 0 0 0 0.25 0"/>
<feBlend mode="normal" in2="BackgroundImageFix" result="effect1_dropShadow_102_30"/>
<feBlend mode="normal" in="SourceGraphic" in2="effect1_dropShadow_102_30" result="shape"/>
</filter>
<filter id="filter2_d_102_30" x="91.4563" y="683.052" width="91.1281" height="77.8505" filterUnits="userSpaceOnUse" color-interpolation-filters="sRGB">
<feFlood flood-opacity="0" result="BackgroundImageFix"/>
<feColorMatrix in="SourceAlpha" type="matrix" values="0 0 0 0 0 0 0 0 0 0 0 0 0 0 0 0 0 0 127 0" result="hardAlpha"/>
<feOffset dy="4"/>
<feGaussianBlur stdDeviation="2"/>
<feComposite in2="hardAlpha" operator="out"/>
<feColorMatrix type="matrix" values="0 0 0 0 0 0 0 0 0 0 0 0 0 0 0 0 0 0 0.25 0"/>
<feBlend mode="normal" in2="BackgroundImageFix" result="effect1_dropShadow_102_30"/>
<feBlend mode="normal" in="SourceGraphic" in2="effect1_dropShadow_102_30" result="shape"/>
</filter>
</defs>
</svg>
